<svg version="1.2" xmlns="http://www.w3.org/2000/svg" viewBox="0 0 489 182" width="489" height="182">
	<title>logo-svg</title>
	<style>
		tspan { white-space:pre } 
		.s0 { fill: #ffcc00 } 
		.t1 { font-size: 60px;fill: #000000;font-weight: 900;font-family: "SourceHanSerifSC-Heavy", "Source Han Serif SC" } 
		.s2 { fill: #006680 } 
		.s3 { fill: #ffffff } 
		.s4 { fill: #000000 } 
	</style>
	<g id="layer1">
		<path id="path3003" class="s0" d="m134 152.2c0 0 27.9 6.8 25.6 19-2.1 11.4-18.7 12.7-27.7 4.9-6.2-5.4 2.1-23.9 2.1-23.9z"/>
		<text id="MyPlant" style="transform: matrix(1,0,0,1,210,73)" >
			<tspan x="0" y="0" class="t1">M</tspan><tspan  y="0" class="t1">y</tspan><tspan  y="0" class="t1">P</tspan><tspan  y="0" class="t1">l</tspan><tspan  y="0" class="t1">a</tspan><tspan  y="0" class="t1">n</tspan><tspan  y="0" class="t1">t
</tspan>
		</text>
		<path id="path3001" class="s0" d="m99.7 176.3c-8.5 7.9-24.3 6.5-26.2-4.9-2.2-12.1 24.2-18.9 24.2-18.9 0 0 7.8 18.4 2 23.8z"/>
		<path id="path2985" class="s2" d="m173.1 137.5c-7.3 21.1-29.4 24.7-56.4 24.7-27-0.1-54-6.4-60.7-24.7-16.5-45.6 11.3-137.2 59.8-137.5 47-0.3 72.8 93.1 57.3 137.5z"/>
		<path id="path2987" class="s3" d="m161.4 135.6c-5.4 18.2-27.2 24.7-45.6 24.4-18.4-0.4-44.5-12.7-47.4-24.4-9.6-37.2 9.1-124.8 48.1-125.1 40.7-0.3 56.3 86.6 44.9 125.1z"/>
		<path id="path2993" class="s0" d="m97.1 58.3l43.2-3.6c0 0 0.6 23-7.9 26.2-13.1 4.8-35.3-22.6-35.3-22.6z"/>
		<circle id="path2995" class="s4" cx="105.7" cy="37" r="4.3"/>
		<circle id="path2997" class="s4" cx="105.7" cy="37" r="4.3"/>
		<circle id="path2999" class="s4" cx="125.8" cy="37" r="4.3"/>
		<path id="path3005" class="s2" d="m61.8 95.8c0 0-27.9 47.3-40.2 34.6-6.9-7.2 45.8-81.8 45.8-81.8z"/>
		<path id="path3007" class="s2" d="m165.2 54.2c0 0 52.7 74.5 45.7 81.7-12.2 12.8-40.1-34.6-40.1-34.6z"/>
	</g>
</svg>